# xmcd
# Copyright (C) 1995-1998 Ti Kan
#
# Track frame offsets:
#       150
#       19497
#       39187
#       61780
#       76995
#       91907
#       106202
#       123690
#       138525
#
# Disc length: 2232 seconds
#
# Revision: 0
# Processed by: cddbd v1.4PL0 Copyright (c) Steve Scherf et al.
# Submitted via: CD-Transfer v1.0
#
DISCID=6f08b609
DTITLE=Don - One Moment
DYEAR=2001
DGENRE=
TTITLE0=Riding On A Butterfly
TTITLE1=Kids Of Today
TTITLE2=One Moment
TTITLE3=Dream
TTITLE4=Never Forget
TTITLE5=Slam On The Brakes
TTITLE6=Nameless Man
TTITLE7=Daydreamer
TTITLE8=Silence
EXTD=
EXTT0=
EXTT1=
EXTT2=
EXTT3=
EXTT4=
EXTT5=
EXTT6=
EXTT7=
EXTT8=
PLAYORDER=
